<svg xmlns="http://www.w3.org/2000/svg" width="32" height="32" id="clipboard"><path style="line-height:normal;text-indent:0;text-align:start;text-decoration-line:none;text-decoration-style:solid;text-decoration-color:#000;text-transform:none;block-progression:tb;white-space:normal;isolation:auto;mix-blend-mode:normal;solid-color:#000;solid-opacity:1" d="M16.096 2.002a2.496 2.496 0 0 0-1.6.5.5.5 0 0 0-.002 0 2.5 2.5 0 0 0-.935 2.496H11.5a.5.5 0 0 0-.5.5v.5H6.5a.5.5 0 0 0-.5.5v23a.5.5 0 0 0 .5.5h19a.5.5 0 0 0 .5-.5v-23a.5.5 0 0 0-.5-.5H21v-.5a.5.5 0 0 0-.5-.5h-2.055a2.493 2.493 0 0 0-2.35-2.996zm-.037.996c.335.013.665.139.933.375.537.473.664 1.25.309 1.871a.5.5 0 0 0 .17.674.5.5 0 0 0 .021.014.5.5 0 0 0 .02.01.5.5 0 0 0 .023.011.5.5 0 0 0 .014.006.5.5 0 0 0 .201.039H20v.42a.5.5 0 0 0 0 .164v1.836a.5.5 0 0 0 0 .164v.416h-8v-.42a.5.5 0 0 0 0-.16v-1.84a.5.5 0 0 0 0-.16v-.42h2.25a.5.5 0 0 0 .43-.766.5.5 0 0 0-.035-.09 1.496 1.496 0 0 1 .453-1.841 1.5 1.5 0 0 1 .96-.303zM7 6.998h4v1H8.5a.5.5 0 0 0-.5.5v19a.5.5 0 0 0 .5.5h15a.5.5 0 0 0 .5-.5v-19a.5.5 0 0 0-.5-.5H21v-1h4v22H7v-22zm2 2h2v.5a.5.5 0 0 0 .5.5h9a.5.5 0 0 0 .5-.5v-.5h2v18H9v-18zm1.5 2a.5.5 0 0 0-.5.5v4a.5.5 0 0 0 .5.5h4a.5.5 0 0 0 .5-.5v-4a.5.5 0 0 0-.5-.5h-4zm6.008 0a.5.5 0 1 0 0 1h4.982a.5.5 0 1 0 0-1h-4.982zm-5.508 1h3v3h-3v-3zm5.508 1a.5.5 0 1 0 0 1h4.982a.5.5 0 1 0 0-1h-4.982zm0 2a.5.5 0 1 0 0 1h4.982a.5.5 0 1 0 0-1h-4.982zm-5.996 2a.5.5 0 1 0 0 1h10.976a.5.5 0 1 0 0-1H10.512zm0 2a.5.5 0 1 0 0 1h10.976a.5.5 0 1 0 0-1H10.512zm-.004 2a.5.5 0 1 0 0 1h3.967a.5.5 0 1 0 0-1h-3.967zm7.99 4a.5.5 0 1 0 0 1h3.02a.5.5 0 1 0 0-1h-3.02z" color="#000" enable-background="accumulate" font-family="sans-serif" font-weight="400" overflow="visible"></path></svg>