<svg xmlns="http://www.w3.org/2000/svg" viewBox="0 0 512 512" id="dashboard"><g data-name="28-Dashboard"><path d="M506.31,38.67H6A5.69,5.69,0,0,0,.3,44.36V467.64A5.69,5.69,0,0,0,6,473.33H506.31a5.69,5.69,0,0,0,5.69-5.69V44.36A5.69,5.69,0,0,0,506.31,38.67ZM11.67,50.05H75.35V462H11.67Zm489,411.9H86.73V50.05h413.9Z"></path><path d="M105.53 132.24h76.1a5.69 5.69 0 0 0 5.69-5.69V77.13a5.68 5.68 0 0 0-5.69-5.69h-76.1a5.68 5.68 0 0 0-5.69 5.69v49.42A5.69 5.69 0 0 0 105.53 132.24zm5.68-49.43H176v38.05H111.21zM202.73 132.24h76.11a5.69 5.69 0 0 0 5.69-5.69V77.13a5.68 5.68 0 0 0-5.69-5.69H202.73a5.68 5.68 0 0 0-5.68 5.69v49.42A5.68 5.68 0 0 0 202.73 132.24zm5.69-49.43h64.74v38.05H208.42zM300 132.24h76.11a5.68 5.68 0 0 0 5.68-5.69V77.13a5.68 5.68 0 0 0-5.68-5.69H300a5.68 5.68 0 0 0-5.69 5.69v49.42A5.69 5.69 0 0 0 300 132.24zm5.68-49.43h64.74v38.05H305.63zM397.16 132.24h76.1a5.69 5.69 0 0 0 5.69-5.69V77.13a5.68 5.68 0 0 0-5.69-5.69h-76.1a5.69 5.69 0 0 0-5.69 5.69v49.42A5.69 5.69 0 0 0 397.16 132.24zm5.69-49.43h64.73v38.05H402.85zM105.53 444.08H275.39a5.68 5.68 0 0 0 5.68-5.69V198.72a5.68 5.68 0 0 0-5.68-5.69H105.53a5.69 5.69 0 0 0-5.69 5.69V438.39A5.69 5.69 0 0 0 105.53 444.08zm5.68-239.67H269.7V432.7H111.21zM473.47 193H298.56a5.69 5.69 0 0 0-5.69 5.69V318.55a5.68 5.68 0 0 0 5.69 5.69H473.47a5.68 5.68 0 0 0 5.69-5.69V198.72A5.69 5.69 0 0 0 473.47 193zm-5.68 119.84H304.25V204.41H467.79zM473.47 333.45H298.56a5.68 5.68 0 0 0-5.69 5.69v99.59a5.68 5.68 0 0 0 5.69 5.69H473.47a5.68 5.68 0 0 0 5.69-5.69V339.14A5.68 5.68 0 0 0 473.47 333.45zm-5.68 99.6H304.25V344.82H467.79zM105.53 171.17H413.27a5.69 5.69 0 0 0 0-11.37H105.53a5.69 5.69 0 1 0 0 11.37zM444.63 165.48a5.56 5.56 0 1 0-5.55 5.69A5.62 5.62 0 0 0 444.63 165.48z"></path><path d="M338 288a5.73 5.73 0 0 0 3.83-1.47l32.91-29.91L384.56 273a5.69 5.69 0 0 0 8.95 1.06l35.4-36.22a5.69 5.69 0 1 0-8.13-8l-30.25 30.95-9.59-16.06a5.69 5.69 0 0 0-8.71-1.29l-38.06 34.58A5.68 5.68 0 0 0 338 288zM258.12 401.83H238V318.55a5.68 5.68 0 0 0-5.69-5.68H201.5a5.68 5.68 0 0 0-5.69 5.68v83.28H180V258.06a5.68 5.68 0 0 0-5.69-5.68H143.58a5.68 5.68 0 0 0-5.69 5.68V401.83H118.76a5.69 5.69 0 0 0 0 11.38H258.12a5.69 5.69 0 0 0 0-11.38zm-50.94-77.59h19.4v74.23h-19.4zm-57.91-60.49h19.4V398.47h-19.4z"></path></g></svg>