<svg xmlns="http://www.w3.org/2000/svg" width="32" height="32" id="globe"><path fill-rule="evenodd" d="M16.678 3c-2.958 0-5.693.962-7.918 2.578C8.056 4.628 6.942 4 5.678 4 3.552 4 1.822 5.748 1.822 7.885c0 .617.248 1.244.58 1.892.333.649.761 1.309 1.19 1.907.12.166.211.268.328.423a13.468 13.468 0 0 0-.742 4.393c0 7.45 6.05 13.5 13.5 13.5s13.5-6.05 13.5-13.5S24.128 3 16.678 3zm-.5 1.021V9h-4.34c.918-1.944 2.175-3.63 3.678-4.943.218-.02.44-.027.662-.036zm1 .004c.227.01.456.013.68.034a14.871 14.871 0 0 1 3.195 4c-.29.272-.53.59-.725.941h-3.15V4.025zm-3.416.325A16.525 16.525 0 0 0 10.725 9H9.289c.14-.377.244-.748.244-1.115 0-.506-.105-.988-.281-1.432a12.423 12.423 0 0 1 4.51-2.103zm5.834.005c2.092.5 3.974 1.524 5.51 2.928A3.796 3.796 0 0 0 23.677 7a3.78 3.78 0 0 0-1.809.477 16.179 16.179 0 0 0-2.273-3.122zM5.678 5c1.58 0 2.855 1.284 2.855 2.885 0 .317-.172.857-.469 1.437-.297.58-.706 1.207-1.117 1.78-.634.885-1.013 1.3-1.27 1.595-.255-.295-.636-.71-1.27-1.595-.411-.573-.819-1.2-1.116-1.78-.297-.58-.469-1.12-.469-1.437C2.822 6.284 4.097 5 5.678 5zm0 .88c-.89 0-1.62.737-1.62 1.628 0 .89.73 1.627 1.62 1.627.89 0 1.619-.736 1.619-1.627a1.63 1.63 0 0 0-1.62-1.627zm0 1c.345 0 .619.273.619.628a.617.617 0 0 1-.62.629.617.617 0 0 1-.618-.63c0-.354.274-.626.619-.626zm18 1.12c1.58 0 2.855 1.284 2.855 2.885 0 .317-.174.857-.47 1.437-.297.58-.704 1.207-1.114 1.78-.634.885-1.015 1.3-1.271 1.595-.256-.295-.637-.71-1.272-1.595-.41-.573-.816-1.2-1.113-1.78-.297-.58-.47-1.12-.47-1.437C20.822 9.284 22.096 8 23.677 8zm0 .88c-.89 0-1.62.737-1.62 1.628 0 .89.73 1.627 1.62 1.627.89 0 1.617-.736 1.617-1.627 0-.89-.727-1.627-1.617-1.627zm0 1c.345 0 .617.273.617.628a.614.614 0 0 1-.617.627.614.614 0 0 1-.617-.627c0-.355.272-.627.617-.627zM8.826 10h1.498a18.735 18.735 0 0 0-1.135 6H4.201c.04-1.014.192-1.997.46-2.934.37.454.644.768.644.768a.5.5 0 0 0 .746 0s.854-.954 1.71-2.15c.38-.53.752-1.108 1.065-1.684zm2.59 0h4.762v6H10.19a17.62 17.62 0 0 1 1.225-6zm5.762 0h2.754c-.067.285-.11.58-.11.885 0 .617.248 1.244.58 1.892a15.54 15.54 0 0 0 1.192 1.907c.37.516.717.947 1.017 1.316h-5.433v-6zm10.287.201A12.424 12.424 0 0 1 29.152 16h-4.408c.3-.369.647-.8 1.018-1.316.428-.598.86-1.258 1.193-1.907.332-.648.578-1.275.578-1.892 0-.234-.029-.461-.068-.684zM4.203 17H9.19a18.732 18.732 0 0 0 1.135 6h-4.31a12.421 12.421 0 0 1-1.81-6zm5.988 0h5.987v6h-4.762a17.622 17.622 0 0 1-1.225-6zm6.987 0h5.968c-.105 1.883-.621 3.953-1.519 6h-4.45v-6zm6.972 0h5.002a12.421 12.421 0 0 1-1.808 6h-4.63c.844-2.03 1.339-4.084 1.436-6zM6.691 24h4.034a16.535 16.535 0 0 0 3.03 4.643A12.474 12.474 0 0 1 6.692 24zm5.147 0h4.34v4.975c-.22-.01-.443-.014-.66-.034-1.504-1.313-2.762-2.997-3.68-4.941zm5.34 0h3.963a22.135 22.135 0 0 1-3.362 4.945c-.198.018-.4.022-.601.03V24zm5.086 0h4.402a12.475 12.475 0 0 1-7.385 4.725A23.278 23.278 0 0 0 22.264 24z" color="#000" font-family="sans-serif" font-weight="400" overflow="visible" style="line-height:normal;text-indent:0;text-align:start;text-decoration-line:none;text-decoration-style:solid;text-decoration-color:#000;text-transform:none;block-progression:tb;white-space:normal;isolation:auto;mix-blend-mode:normal;solid-color:#000;solid-opacity:1"></path></svg>