<svg xmlns="http://www.w3.org/2000/svg" viewBox="0 0 64 64" id="price-tag"><path d="M52.59 14.17c-.26 0-.47-.2-.49-.46l-.18-2.76c-.02-.27.19-.5.46-.52.27-.03.5.19.52.46l.17 2.7v.08c0 .27-.21.48-.48.49.01.01.01.01 0 .01z"></path><path d="M22.99 58.97c-.82 0-1.6-.32-2.18-.91L.9 38.18c-.57-.58-.9-1.34-.9-2.15 0-.81.31-1.57.88-2.14L28.82 5.91a3.01 3.01 0 0 1 2.44-.87l18.75 1.09c1.47.15 2.64 1.31 2.79 2.75l1.12 18.79c.09.91-.22 1.81-.86 2.45L25.12 58.09c-.56.57-1.31.88-2.12.89l-.01-.01zm7.95-52.96c-.54 0-1.04.21-1.43.59L1.57 34.59a2.028 2.028 0 0 0 .03 2.89l19.9 19.89c.4.4.93.62 1.48.62h.01c.54 0 1.05-.21 1.42-.6l23.27-23.3 4.67-4.66c.43-.43.64-1.04.58-1.67L51.81 8.97c-.1-.96-.89-1.75-1.88-1.85l-18.76-1.1c-.07 0-.15-.01-.23-.01z"></path><path d="M52.59 14.17c-.24 0-.45-.17-.49-.41l-.02-.13a.495.495 0 0 1 .97-.2c.01.06.04.14.04.24 0 .26-.2.47-.45.49-.02.01-.04.01-.05.01zm-.49-.49h.09-.09z"></path><path d="M56 39.55c-2.06 0-4.2-.88-6.18-2.56a14.96 14.96 0 0 1-2.17-2.25 19.55 19.55 0 0 1-2.26-3.52c-.46-.9-.87-1.84-1.2-2.78l-.14-.38c-1.04-3.12-1.4-6.27-1.04-9.14.01-.11.03-.22.05-.31.07-.26.33-.43.6-.36.26.07.42.33.36.6l-.03.18c-.34 2.74 0 5.74.99 8.71l.13.36c.32.91.71 1.81 1.15 2.68.6 1.2 1.32 2.33 2.15 3.35.63.79 1.31 1.5 2.04 2.11 2.44 2.07 5.12 2.79 7.44 2.03 4.74-1.59 6.49-8.7 3.99-16.18-1.17-3.49-3.11-6.52-5.47-8.51-1.34-1.13-2.72-1.86-4.11-2.16a.5.5 0 0 1-.38-.59.5.5 0 0 1 .59-.38c1.55.34 3.08 1.13 4.54 2.37 2.5 2.11 4.55 5.29 5.77 8.95 2.68 8 .65 15.66-4.61 17.43-.71.23-1.45.35-2.21.35zM23.3 51.77c-.13 0-.25-.05-.35-.14L7.32 36.01a.501.501 0 0 1 0-.7l20.7-20.73a.5.5 0 0 1 .35-.14.5.5 0 0 1 .35.14l15.64 15.63a.5.5 0 0 1 .14.35.5.5 0 0 1-.14.35l-20.7 20.72c-.11.09-.23.14-.36.14zM8.36 35.66 23.3 50.58l20.01-20.03-14.95-14.92-20 20.03z"></path><path d="M44.09 19.26c-2.43 0-4.41-1.98-4.41-4.41s1.98-4.41 4.41-4.41 4.41 1.98 4.41 4.41-1.97 4.41-4.41 4.41zm0-7.84c-1.89 0-3.43 1.54-3.43 3.43 0 1.89 1.54 3.43 3.43 3.43 1.89 0 3.43-1.54 3.43-3.43 0-1.89-1.54-3.43-3.43-3.43z"></path></svg>