<svg xmlns="http://www.w3.org/2000/svg" width="32" height="32" id="users"><path fill="#1C1C1C" fill-rule="evenodd" d="M24.031 16.717A6.987 6.987 0 0 0 27 11a7 7 0 1 0-14 0 6.987 6.987 0 0 0 2.969 5.717C11.328 18.374 8 22.79 8 28h24c0-5.21-3.328-9.626-7.969-11.283zM14 11a6 6 0 1 1 12 0 5.994 5.994 0 0 1-3.847 5.595l-.103.038a6.08 6.08 0 0 1-.522.163c-.053.014-.106.029-.16.041a5.99 5.99 0 0 1-.508.094c-.058.008-.116.02-.174.027-.225.026-.454.042-.686.042s-.461-.016-.686-.042c-.059-.007-.116-.018-.174-.027a6.14 6.14 0 0 1-.508-.094l-.16-.041a6.08 6.08 0 0 1-.522-.163l-.103-.038A5.994 5.994 0 0 1 14 11zm3.14 6.385a6.967 6.967 0 0 0 5.72 0c4.374 1.177 7.671 4.977 8.09 9.615H9.05c.419-4.638 3.716-8.438 8.09-9.615z" clip-rule="evenodd"></path><path fill="#1C1C1C" fill-rule="evenodd" d="M1.05 27c.419-4.638 3.715-8.438 8.09-9.615.874.392 1.84.615 2.86.615.148 0 .293-.015.439-.024a12.04 12.04 0 0 1 2.529-1.26c-.136-.096-.261-.206-.39-.311-.14.066-.28.134-.426.19l-.103.038a6.08 6.08 0 0 1-.522.163c-.053.014-.106.029-.16.041a5.99 5.99 0 0 1-.508.094c-.058.008-.116.02-.174.027-.224.026-.453.042-.685.042s-.461-.016-.686-.042c-.059-.007-.116-.018-.174-.027a6.14 6.14 0 0 1-.508-.094l-.16-.041a6.08 6.08 0 0 1-.522-.163l-.103-.038A5.994 5.994 0 0 1 6 11a6 6 0 0 1 6-6c.92 0 1.788.213 2.568.583.291-.239.605-.45.932-.639A6.958 6.958 0 0 0 12 4a7 7 0 0 0-7 7 6.987 6.987 0 0 0 2.969 5.717C3.328 18.374 0 22.79 0 28h7c0-.337.015-.67.042-1H1.05z" clip-rule="evenodd"></path></svg>